<svg width="18" height="18" viewBox="0 0 18 18" fill="none" xmlns="http://www.w3.org/2000/svg">
    <path d="M5.93047 14.025C5.93047 14.0968 5.85099 14.1543 5.75077 14.1543C5.63674 14.1651 5.55726 14.1076 5.55726 14.025C5.55726 13.9532 5.63674 13.8957 5.73695 13.8957C5.84062 13.8849 5.93047 13.9424 5.93047 14.025ZM4.85575 13.8634C4.83156 13.9352 4.90068 14.0178 5.00435 14.0394C5.0942 14.0753 5.19787 14.0394 5.2186 13.9675C5.23933 13.8957 5.17368 13.8131 5.07001 13.7808C4.98016 13.7557 4.87994 13.7916 4.85575 13.8634ZM6.38316 13.8023C6.28295 13.8275 6.21383 13.8957 6.2242 13.9783C6.23457 14.0501 6.32441 14.0968 6.42808 14.0717C6.5283 14.0465 6.59741 13.9783 6.58704 13.9065C6.57668 13.8383 6.48337 13.7916 6.38316 13.8023ZM8.65699 0.0408325C3.86398 0.0408325 0.19751 3.82237 0.19751 8.80338C0.19751 12.786 2.60957 16.1941 6.05487 17.3935C6.4972 17.4761 6.6527 17.1924 6.6527 16.959C6.6527 16.7364 6.64234 15.5082 6.64234 14.754C6.64234 14.754 4.22337 15.2927 3.71538 13.6838C3.71538 13.6838 3.32144 12.6388 2.75471 12.3694C2.75471 12.3694 1.96336 11.8056 2.81 11.8164C2.81 11.8164 3.67046 11.8882 4.14389 12.7429C4.90068 14.1291 6.16891 13.7305 6.66307 13.4935C6.74255 12.9189 6.96717 12.5203 7.21598 12.2833C5.28426 12.0606 3.33526 11.7697 3.33526 8.31497C3.33526 7.32739 3.59789 6.83181 4.1508 6.19975C4.06095 5.96632 3.76722 5.00388 4.24064 3.76132C4.96288 3.52789 6.62506 4.73095 6.62506 4.73095C7.31619 4.52984 8.05916 4.4257 8.79522 4.4257C9.53128 4.4257 10.2742 4.52984 10.9654 4.73095C10.9654 4.73095 12.6276 3.5243 13.3498 3.76132C13.8232 5.00747 13.5295 5.96632 13.4396 6.19975C13.9925 6.8354 14.3312 7.33098 14.3312 8.31497C14.3312 11.7805 12.2958 12.057 10.3641 12.2833C10.682 12.567 10.9516 13.1056 10.9516 13.9496C10.9516 15.1598 10.9412 16.6573 10.9412 16.9518C10.9412 17.1853 11.1002 17.469 11.539 17.3864C14.9947 16.1941 17.3376 12.786 17.3376 8.80338C17.3376 3.82237 13.45 0.0408325 8.65699 0.0408325ZM3.55642 12.4269C3.5115 12.4628 3.52186 12.5454 3.58061 12.6136C3.6359 12.6711 3.71538 12.6962 3.76031 12.6496C3.80523 12.6136 3.79486 12.5311 3.73612 12.4628C3.68083 12.4054 3.60135 12.3802 3.55642 12.4269ZM3.18321 12.136C3.15902 12.1827 3.19358 12.2402 3.26269 12.2761C3.31798 12.312 3.38709 12.3012 3.41128 12.2509C3.43547 12.2043 3.40092 12.1468 3.3318 12.1109C3.26269 12.0893 3.2074 12.1001 3.18321 12.136ZM4.30285 13.4145C4.24756 13.4612 4.26829 13.5689 4.34777 13.6371C4.42725 13.7197 4.52747 13.7305 4.57239 13.6731C4.61731 13.6264 4.59658 13.5186 4.52747 13.4504C4.45144 13.3678 4.34777 13.357 4.30285 13.4145ZM3.9089 12.8866C3.85361 12.9225 3.85361 13.0159 3.9089 13.0985C3.96419 13.1811 4.05749 13.217 4.10242 13.1811C4.15771 13.1344 4.15771 13.041 4.10242 12.9584C4.05404 12.8758 3.96419 12.8399 3.9089 12.8866Z" fill="black"/>
</svg>