<svg width="18" height="18" viewBox="0 0 19 15" fill="none" xmlns="http://www.w3.org/2000/svg">
    <path d="M4.76656 14.8487H1.21305V5.13938H4.76656V14.8487ZM2.98789 3.81494C1.8516 3.81494 0.929932 3.01638 0.929932 2.05227C0.929932 1.58917 1.14675 1.14504 1.53269 0.817578C1.91864 0.490118 2.44209 0.306152 2.98789 0.306152C3.5337 0.306152 4.05715 0.490118 4.44309 0.817578C4.82904 1.14504 5.04586 1.58917 5.04586 2.05227C5.04586 3.01638 4.12381 3.81494 2.98789 3.81494ZM18.0662 14.8487H14.5204V10.1223C14.5204 8.99584 14.4936 7.55129 12.6728 7.55129C10.8253 7.55129 10.5422 8.7751 10.5422 10.0411V14.8487H6.99249V5.13938H10.4006V6.46382H10.4504C10.9248 5.70097 12.0836 4.89592 13.8126 4.89592C17.4089 4.89592 18.0701 6.9053 18.0701 9.51523V14.8487H18.0662Z" fill="black"/>
</svg>
